<svg width="48" height="48" viewBox="0 0 48 48" fill="none" xmlns="http://www.w3.org/2000/svg">
<g filter="url(#filter0_d_17_8456)">
<rect x="4" width="39.9988" height="40" rx="19.9994" fill="#7165E3" shape-rendering="crispEdges"/>
<path d="M31.9988 16.1917C31.9994 16.0864 31.9792 15.9821 31.9394 15.8846C31.8996 15.7871 31.841 15.6985 31.7668 15.6237L28.3751 12.232C28.3003 12.1579 28.2117 12.0992 28.1142 12.0594C28.0168 12.0196 27.9124 11.9994 27.8071 12C27.7019 11.9994 27.5975 12.0196 27.5 12.0594C27.4026 12.0992 27.3139 12.1579 27.2392 12.232L24.9753 14.4958L16.232 23.2392C16.1579 23.3139 16.0992 23.4026 16.0594 23.5C16.0196 23.5975 15.9994 23.7019 16 23.8071V27.1989C16 27.411 16.0843 27.6145 16.2343 27.7645C16.3843 27.9145 16.5878 27.9988 16.8 27.9988H20.1917C20.3036 28.0049 20.4156 27.9874 20.5203 27.9474C20.6251 27.9075 20.7202 27.8459 20.7997 27.7668L29.495 19.0235L31.7668 16.7997C31.8399 16.7221 31.8993 16.6329 31.9428 16.5357C31.9505 16.4719 31.9505 16.4075 31.9428 16.3437C31.9466 16.3065 31.9466 16.2689 31.9428 16.2317L31.9988 16.1917ZM19.8637 26.3989H17.5999V24.1351L25.5433 16.1917L27.8071 18.4555L19.8637 26.3989ZM28.935 17.3276L26.6712 15.0638L27.8071 13.9359L30.063 16.1917L28.935 17.3276Z" fill="white"/>
</g>
<defs>
<filter id="filter0_d_17_8456" x="0" y="0" width="47.9988" height="48" filterUnits="userSpaceOnUse" color-interpolation-filters="sRGB">
<feFlood flood-opacity="0" result="BackgroundImageFix"/>
<feColorMatrix in="SourceAlpha" type="matrix" values="0 0 0 0 0 0 0 0 0 0 0 0 0 0 0 0 0 0 127 0" result="hardAlpha"/>
<feOffset dy="4"/>
<feGaussianBlur stdDeviation="2"/>
<feComposite in2="hardAlpha" operator="out"/>
<feColorMatrix type="matrix" values="0 0 0 0 0 0 0 0 0 0 0 0 0 0 0 0 0 0 0.12 0"/>
<feBlend mode="normal" in2="BackgroundImageFix" result="effect1_dropShadow_17_8456"/>
<feBlend mode="normal" in="SourceGraphic" in2="effect1_dropShadow_17_8456" result="shape"/>
</filter>
</defs>
</svg>
