<svg width="80" height="76" viewBox="0 0 80 76" fill="none" xmlns="http://www.w3.org/2000/svg">
<rect y="16" width="50" height="50" rx="25" fill="#8833FF" fill-opacity="0.1"/>
<path fill-rule="evenodd" clip-rule="evenodd" d="M24.5865 50.5C25.6865 50.5 26.5865 49.6 26.5865 48.5H22.5865C22.5865 49.6 23.4765 50.5 24.5865 50.5ZM30.5865 44.5V39.5C30.5865 36.43 28.9465 33.86 26.0865 33.18V32.5C26.0865 31.67 25.4165 31 24.5865 31C23.7565 31 23.0865 31.67 23.0865 32.5V33.18C20.2165 33.86 18.5865 36.42 18.5865 39.5V44.5L17.2965 45.79C16.6665 46.42 17.1065 47.5 17.9965 47.5H31.1665C32.0565 47.5 32.5065 46.42 31.8765 45.79L30.5865 44.5Z" fill="#7165E3"/>
<g filter="url(#filter0_d_18_4659)">
<rect x="30" y="16" width="20" height="20" rx="10" fill="#7165E3"/>
<path d="M41.4453 23.3125V29H40.1289V24.7969L38.832 25.1758V24.1758L41.3242 23.3125H41.4453Z" fill="white"/>
</g>
<defs>
<filter id="filter0_d_18_4659" x="0" y="-4" width="80" height="80" filterUnits="userSpaceOnUse" color-interpolation-filters="sRGB">
<feFlood flood-opacity="0" result="BackgroundImageFix"/>
<feColorMatrix in="SourceAlpha" type="matrix" values="0 0 0 0 0 0 0 0 0 0 0 0 0 0 0 0 0 0 127 0" result="hardAlpha"/>
<feOffset dy="10"/>
<feGaussianBlur stdDeviation="15"/>
<feColorMatrix type="matrix" values="0 0 0 0 0.533333 0 0 0 0 0.2 0 0 0 0 1 0 0 0 0.15 0"/>
<feBlend mode="normal" in2="BackgroundImageFix" result="effect1_dropShadow_18_4659"/>
<feBlend mode="normal" in="SourceGraphic" in2="effect1_dropShadow_18_4659" result="shape"/>
</filter>
</defs>
</svg>
