<svg width="20" height="20" viewBox="0 0 20 20" fill="none" xmlns="http://www.w3.org/2000/svg">
<path fill-rule="evenodd" clip-rule="evenodd" d="M17.68 6.26007C17.68 5.90675 17.3926 5.62002 17.04 5.62002H14.48C14.1273 5.62002 13.8399 5.90676 13.8399 6.26007V17.7801C13.8399 18.1334 14.1273 18.4201 14.48 18.4201H17.04C17.3926 18.4201 17.68 18.1334 17.68 17.7801V6.26007ZM18.96 6.26007V17.7801C18.96 18.8386 18.0986 19.7001 17.04 19.7001H14.48C13.4214 19.7001 12.56 18.8386 12.56 17.7801V12.6602H7.51858L2.4755 13.921L2.16452 12.6793L7.44006 11.3801H12.5599L12.5601 6.26017C12.5601 5.2016 13.4215 4.34017 14.4801 4.34017H17.0401C18.0987 4.34017 18.9601 5.2016 18.9601 6.26017L18.96 6.26007ZM6.16012 15.22C6.16012 15.5733 5.87271 15.86 5.52007 15.86H4.24012C3.88749 15.86 3.60007 15.5733 3.60007 15.22V14.5799L2.32012 14.58V15.2201C2.32012 16.2787 3.18154 17.1401 4.24012 17.1401H5.52007C6.57864 17.1401 7.44007 16.2787 7.44007 15.2201V13.9401L6.16012 13.94V15.22ZM8.72016 1.77995H5.52007V0.5H4.24012V1.77995H1.04016V3.05991H8.72016V1.77995ZM2.4757 11.3608L7.59559 10.0808L7.28461 8.83914L2.16472 10.1191L2.4757 11.3608ZM7.28462 6.27927L2.16473 7.55922L2.47571 8.80088L7.5956 7.52093L7.28462 6.27927ZM7.5956 4.96088L2.47571 6.24083L2.16473 4.99918L7.28462 3.71922L7.5956 4.96088Z" fill="#1C1939" fill-opacity="0.8" stroke="#1C1939" stroke-opacity="0.8" stroke-width="0.5"/>
</svg>
