<svg width="302" height="74" viewBox="0 0 302 74" fill="none" xmlns="http://www.w3.org/2000/svg">
<rect x="1" y="1" width="300" height="72" rx="10" fill="white"/>
<path d="M30.5938 56.4922C28.1094 56.4922 25.9844 55.9453 24.2188 54.8516C22.4531 53.7578 21.0938 52.2422 20.1406 50.3047C19.1875 48.3516 18.7109 46.1094 18.7109 43.5781V43.0859C18.7109 40.5703 19.1875 38.3438 20.1406 36.4062C21.0938 34.4688 22.4531 32.9453 24.2188 31.8359C25.9844 30.7266 28.0938 30.1719 30.5469 30.1719C33.0156 30.1719 35.1328 30.7266 36.8984 31.8359C38.6641 32.9297 40.0156 34.4453 40.9531 36.3828C41.9062 38.3203 42.3828 40.5547 42.3828 43.0859V43.5781C42.3828 46.1094 41.9062 48.3516 40.9531 50.3047C40.0156 52.2422 38.6641 53.7578 36.8984 54.8516C35.1328 55.9453 33.0312 56.4922 30.5938 56.4922ZM30.5938 51.5938C31.8281 51.5938 32.8438 51.2578 33.6406 50.5859C34.4531 49.9141 35.0547 48.9766 35.4453 47.7734C35.8359 46.5547 36.0312 45.1562 36.0312 43.5781V43.0859C36.0312 41.5234 35.8359 40.1406 35.4453 38.9375C35.0547 37.7344 34.4531 36.7969 33.6406 36.125C32.8281 35.4375 31.7969 35.0938 30.5469 35.0938C29.2969 35.0938 28.2656 35.4375 27.4531 36.125C26.6562 36.7969 26.0625 37.7344 25.6719 38.9375C25.2812 40.1406 25.0859 41.5234 25.0859 43.0859V43.5781C25.0859 45.1719 25.2812 46.5703 25.6719 47.7734C26.0625 48.9766 26.6641 49.9141 27.4766 50.5859C28.2891 51.2578 29.3281 51.5938 30.5938 51.5938Z" fill="#59576D"/>
<path d="M68.2812 56.4922C64.7656 56.4922 61.9766 55.3281 59.9141 53C57.8672 50.6562 56.8438 47.25 56.8438 42.7812V35.1172C56.8438 30.6484 57.8672 27.2422 59.9141 24.8984C61.9609 22.5547 64.7344 21.3828 68.2344 21.3828C71.7344 21.3828 74.5078 22.5547 76.5547 24.8984C78.6172 27.2422 79.6484 30.6484 79.6484 35.1172V42.7812C79.6484 47.2656 78.625 50.6719 76.5781 53C74.5469 55.3281 71.7812 56.4922 68.2812 56.4922ZM68.2812 51.5938C69.9219 51.5938 71.1641 50.9453 72.0078 49.6484C72.8672 48.3359 73.2969 46.2812 73.2969 43.4844V34.3672C73.2969 31.6016 72.8594 29.5703 71.9844 28.2734C71.125 26.9609 69.875 26.3047 68.2344 26.3047C66.5938 26.3047 65.3438 26.9609 64.4844 28.2734C63.625 29.5703 63.1953 31.6016 63.1953 34.3672V43.4844C63.1953 46.2812 63.625 48.3359 64.4844 49.6484C65.3594 50.9453 66.625 51.5938 68.2812 51.5938ZM91.75 56L92.0781 52.4844C92.4531 49.0781 93.0938 45.8828 94 42.8984C94.9219 39.9141 96.1172 37.0859 97.5859 34.4141C99.0703 31.7422 100.844 29.2031 102.906 26.7969H90.4141L90.1328 30.2891H85.1641V21.875H109.047V26.7969C107.172 29 105.617 31.0938 104.383 33.0781C103.148 35.0469 102.148 37.0234 101.383 39.0078C100.617 40.9922 100.008 43.0781 99.5547 45.2656C99.1172 47.4375 98.75 49.8438 98.4531 52.4844L98.125 56H91.75ZM119.812 56L120.141 52.4844C120.516 49.0781 121.156 45.8828 122.062 42.8984C122.984 39.9141 124.18 37.0859 125.648 34.4141C127.133 31.7422 128.906 29.2031 130.969 26.7969H118.477L118.195 30.2891H113.227V21.875H137.109V26.7969C135.234 29 133.68 31.0938 132.445 33.0781C131.211 35.0469 130.211 37.0234 129.445 39.0078C128.68 40.9922 128.07 43.0781 127.617 45.2656C127.18 47.4375 126.812 49.8438 126.516 52.4844L126.188 56H119.812Z" fill="#59576D"/>
<path d="M162.266 56.4922C159.781 56.4922 157.656 55.9453 155.891 54.8516C154.125 53.7578 152.766 52.2422 151.812 50.3047C150.859 48.3516 150.383 46.1094 150.383 43.5781V43.0859C150.383 40.5703 150.859 38.3438 151.812 36.4062C152.766 34.4688 154.125 32.9453 155.891 31.8359C157.656 30.7266 159.766 30.1719 162.219 30.1719C164.688 30.1719 166.805 30.7266 168.57 31.8359C170.336 32.9297 171.688 34.4453 172.625 36.3828C173.578 38.3203 174.055 40.5547 174.055 43.0859V43.5781C174.055 46.1094 173.578 48.3516 172.625 50.3047C171.688 52.2422 170.336 53.7578 168.57 54.8516C166.805 55.9453 164.703 56.4922 162.266 56.4922ZM162.266 51.5938C163.5 51.5938 164.516 51.2578 165.312 50.5859C166.125 49.9141 166.727 48.9766 167.117 47.7734C167.508 46.5547 167.703 45.1562 167.703 43.5781V43.0859C167.703 41.5234 167.508 40.1406 167.117 38.9375C166.727 37.7344 166.125 36.7969 165.312 36.125C164.5 35.4375 163.469 35.0938 162.219 35.0938C160.969 35.0938 159.938 35.4375 159.125 36.125C158.328 36.7969 157.734 37.7344 157.344 38.9375C156.953 40.1406 156.758 41.5234 156.758 43.0859V43.5781C156.758 45.1719 156.953 46.5703 157.344 47.7734C157.734 48.9766 158.336 49.9141 159.148 50.5859C159.961 51.2578 161 51.5938 162.266 51.5938ZM191.594 56.4922C189.109 56.4922 186.984 55.9453 185.219 54.8516C183.453 53.7578 182.094 52.2422 181.141 50.3047C180.188 48.3516 179.711 46.1094 179.711 43.5781V43.0859C179.711 40.5703 180.188 38.3438 181.141 36.4062C182.094 34.4688 183.453 32.9453 185.219 31.8359C186.984 30.7266 189.094 30.1719 191.547 30.1719C194.016 30.1719 196.133 30.7266 197.898 31.8359C199.664 32.9297 201.016 34.4453 201.953 36.3828C202.906 38.3203 203.383 40.5547 203.383 43.0859V43.5781C203.383 46.1094 202.906 48.3516 201.953 50.3047C201.016 52.2422 199.664 53.7578 197.898 54.8516C196.133 55.9453 194.031 56.4922 191.594 56.4922ZM191.594 51.5938C192.828 51.5938 193.844 51.2578 194.641 50.5859C195.453 49.9141 196.055 48.9766 196.445 47.7734C196.836 46.5547 197.031 45.1562 197.031 43.5781V43.0859C197.031 41.5234 196.836 40.1406 196.445 38.9375C196.055 37.7344 195.453 36.7969 194.641 36.125C193.828 35.4375 192.797 35.0938 191.547 35.0938C190.297 35.0938 189.266 35.4375 188.453 36.125C187.656 36.7969 187.062 37.7344 186.672 38.9375C186.281 40.1406 186.086 41.5234 186.086 43.0859V43.5781C186.086 45.1719 186.281 46.5703 186.672 47.7734C187.062 48.9766 187.664 49.9141 188.477 50.5859C189.289 51.2578 190.328 51.5938 191.594 51.5938Z" fill="#59576D"/>
<path d="M230.916 40L243.288 15.5114V15.3125H228.928V10.9091H248.743V15.4119L236.385 40H230.916ZM257.174 40L269.546 15.5114V15.3125H255.185V10.9091H275.001V15.4119L262.643 40H257.174Z" fill="#59576D"/>
<path d="M228.616 63V51.3636H232.98C233.874 51.3636 234.624 51.5189 235.23 51.8295C235.84 52.1402 236.3 52.5758 236.611 53.1364C236.925 53.6932 237.082 54.3428 237.082 55.0852C237.082 55.8314 236.923 56.4792 236.605 57.0284C236.291 57.5739 235.827 57.9962 235.213 58.2955C234.599 58.5909 233.846 58.7386 232.952 58.7386H229.844V56.9886H232.668C233.19 56.9886 233.618 56.9167 233.952 56.7727C234.285 56.625 234.531 56.411 234.69 56.1307C234.853 55.8466 234.935 55.4981 234.935 55.0852C234.935 54.6723 234.853 54.3201 234.69 54.0284C234.527 53.733 234.279 53.5095 233.946 53.358C233.613 53.2027 233.183 53.125 232.656 53.125H230.724V63H228.616ZM234.628 57.7273L237.509 63H235.156L232.327 57.7273H234.628ZM248.358 51.3636H250.466V58.9659C250.466 59.7992 250.269 60.5322 249.875 61.1648C249.485 61.7973 248.936 62.2917 248.227 62.6477C247.519 63 246.691 63.1761 245.744 63.1761C244.794 63.1761 243.964 63 243.256 62.6477C242.547 62.2917 241.998 61.7973 241.608 61.1648C241.218 60.5322 241.023 59.7992 241.023 58.9659V51.3636H243.131V58.7898C243.131 59.2746 243.237 59.7064 243.449 60.0852C243.665 60.464 243.968 60.7614 244.358 60.9773C244.748 61.1894 245.21 61.2955 245.744 61.2955C246.278 61.2955 246.741 61.1894 247.131 60.9773C247.525 60.7614 247.828 60.464 248.04 60.0852C248.252 59.7064 248.358 59.2746 248.358 58.7898V51.3636ZM261.081 54.5625C261.028 54.0663 260.804 53.6799 260.411 53.4034C260.02 53.1269 259.513 52.9886 258.888 52.9886C258.448 52.9886 258.071 53.0549 257.757 53.1875C257.443 53.3201 257.202 53.5 257.036 53.7273C256.869 53.9545 256.784 54.214 256.78 54.5057C256.78 54.7481 256.835 54.9583 256.945 55.1364C257.058 55.3144 257.212 55.4659 257.405 55.5909C257.598 55.7121 257.812 55.8144 258.047 55.8977C258.282 55.9811 258.518 56.0511 258.757 56.108L259.848 56.3807C260.287 56.483 260.71 56.6212 261.115 56.7955C261.524 56.9697 261.89 57.1894 262.212 57.4545C262.537 57.7197 262.795 58.0398 262.984 58.4148C263.174 58.7898 263.268 59.2292 263.268 59.733C263.268 60.4148 263.094 61.0152 262.746 61.5341C262.397 62.0492 261.893 62.4527 261.234 62.7443C260.579 63.0322 259.786 63.1761 258.854 63.1761C257.948 63.1761 257.162 63.036 256.496 62.7557C255.833 62.4754 255.314 62.0663 254.939 61.5284C254.568 60.9905 254.367 60.3352 254.337 59.5625H256.411C256.441 59.9678 256.566 60.3049 256.786 60.5739C257.005 60.8428 257.291 61.0436 257.643 61.1761C258 61.3087 258.397 61.375 258.837 61.375C259.295 61.375 259.696 61.3068 260.041 61.1705C260.39 61.0303 260.662 60.8371 260.859 60.5909C261.056 60.3409 261.157 60.0492 261.161 59.7159C261.157 59.4129 261.068 59.1629 260.893 58.9659C260.719 58.7652 260.475 58.5985 260.161 58.4659C259.85 58.3295 259.486 58.2083 259.07 58.1023L257.746 57.7614C256.787 57.5152 256.03 57.142 255.473 56.642C254.92 56.1383 254.643 55.4697 254.643 54.6364C254.643 53.9508 254.829 53.3504 255.2 52.8352C255.575 52.3201 256.085 51.9205 256.729 51.6364C257.373 51.3485 258.102 51.2045 258.916 51.2045C259.742 51.2045 260.465 51.3485 261.087 51.6364C261.712 51.9205 262.202 52.3163 262.558 52.8239C262.914 53.3277 263.098 53.9072 263.109 54.5625H261.081Z" fill="#59576D"/>
<path d="M269.667 50.6667H290.333V63.3334H269.667V50.6667Z" fill="#D22F27"/>
<path d="M269.667 50.6667H290.333V55.0001H269.667V50.6667Z" fill="white"/>
<path d="M269.667 55H290.333V59H269.667V55Z" fill="#1E50A0"/>
<path d="M269.667 50.6667H290.333V63.3334H269.667V50.6667Z" stroke="black" stroke-linecap="round" stroke-linejoin="round"/>
<path d="M217 73V1H213V73H217Z" fill="black" mask="url(#path-5-inside-1_20_4468)"/>
<rect x="1" y="1" width="300" height="72" rx="10" stroke="black" stroke-width="2"/>
</svg>
