<svg width="300" height="64" viewBox="0 0 300 64" fill="none" xmlns="http://www.w3.org/2000/svg">
<rect x="1" y="1" width="298" height="62" rx="9" fill="#F7F7F7"/>
<path d="M85.2891 47.1094C82.7161 47.1094 80.5078 46.4583 78.6641 45.1562C76.8307 43.8437 75.4193 41.9531 74.4297 39.4844C73.4505 37.0052 72.9609 34.0208 72.9609 30.5312C72.9714 27.0417 73.4661 24.0729 74.4453 21.625C75.4349 19.1667 76.8464 17.2917 78.6797 16C80.5234 14.7083 82.7266 14.0625 85.2891 14.0625C87.8516 14.0625 90.0547 14.7083 91.8984 16C93.7422 17.2917 95.1536 19.1667 96.1328 21.625C97.1224 24.0833 97.6172 27.0521 97.6172 30.5312C97.6172 34.0312 97.1224 37.0208 96.1328 39.5C95.1536 41.9688 93.7422 43.8542 91.8984 45.1562C90.0651 46.4583 87.862 47.1094 85.2891 47.1094ZM85.2891 42.2187C87.2891 42.2187 88.8672 41.2344 90.0234 39.2656C91.1901 37.2865 91.7734 34.375 91.7734 30.5312C91.7734 27.9896 91.5078 25.8542 90.9766 24.125C90.4453 22.3958 89.6953 21.0937 88.7266 20.2188C87.7578 19.3333 86.612 18.8906 85.2891 18.8906C83.2995 18.8906 81.7266 19.8802 80.5703 21.8594C79.4141 23.8281 78.8307 26.7187 78.8203 30.5312C78.8099 33.0833 79.0651 35.2292 79.5859 36.9687C80.1172 38.7083 80.8672 40.0208 81.8359 40.9062C82.8047 41.7812 83.9557 42.2187 85.2891 42.2187ZM104.809 46.5V42.3125L115.918 31.4219C116.98 30.349 117.866 29.3958 118.574 28.5625C119.283 27.7292 119.814 26.9219 120.168 26.1406C120.522 25.3594 120.699 24.526 120.699 23.6406C120.699 22.6302 120.47 21.7656 120.012 21.0469C119.553 20.3177 118.923 19.7552 118.121 19.3594C117.319 18.9635 116.408 18.7656 115.387 18.7656C114.335 18.7656 113.413 18.9844 112.621 19.4219C111.829 19.849 111.215 20.4583 110.777 21.25C110.35 22.0417 110.137 22.9844 110.137 24.0781H104.621C104.621 22.0469 105.085 20.2812 106.012 18.7812C106.939 17.2812 108.215 16.1198 109.84 15.2969C111.475 14.474 113.35 14.0625 115.465 14.0625C117.611 14.0625 119.496 14.4635 121.121 15.2656C122.746 16.0677 124.007 17.1667 124.902 18.5625C125.809 19.9583 126.262 21.5521 126.262 23.3437C126.262 24.5417 126.033 25.7187 125.574 26.875C125.116 28.0312 124.309 29.3125 123.152 30.7187C122.007 32.125 120.397 33.8281 118.324 35.8281L112.809 41.4375V41.6562H126.746V46.5H104.809ZM132.871 40.5625V35.9531L146.449 14.5H150.293V21.0625H147.949L138.809 35.5469V35.7969H157.762V40.5625H132.871ZM148.137 46.5V39.1562L148.199 37.0937V14.5H153.668V46.5H148.137ZM175.879 46.9375C173.796 46.9375 171.931 46.5469 170.285 45.7656C168.639 44.974 167.332 43.8906 166.363 42.5156C165.405 41.1406 164.895 39.5677 164.832 37.7969H170.457C170.561 39.1094 171.129 40.1823 172.16 41.0156C173.191 41.8385 174.431 42.25 175.879 42.25C177.014 42.25 178.025 41.9896 178.91 41.4687C179.796 40.9479 180.493 40.224 181.004 39.2969C181.514 38.3698 181.764 37.3125 181.754 36.125C181.764 34.9167 181.509 33.8437 180.988 32.9062C180.467 31.9687 179.754 31.2344 178.848 30.7031C177.941 30.1615 176.9 29.8906 175.723 29.8906C174.764 29.8802 173.822 30.0573 172.895 30.4219C171.967 30.7865 171.233 31.2656 170.691 31.8594L165.457 31L167.129 14.5H185.691V19.3438H171.926L171.004 27.8281H171.191C171.785 27.1302 172.624 26.5521 173.707 26.0937C174.79 25.625 175.978 25.3906 177.27 25.3906C179.207 25.3906 180.936 25.849 182.457 26.7656C183.978 27.6719 185.176 28.9219 186.051 30.5156C186.926 32.1094 187.363 33.9323 187.363 35.9844C187.363 38.099 186.874 39.9844 185.895 41.6406C184.926 43.2865 183.577 44.5833 181.848 45.5312C180.129 46.4687 178.139 46.9375 175.879 46.9375ZM205.723 46.9375C203.639 46.9375 201.775 46.5469 200.129 45.7656C198.483 44.974 197.176 43.8906 196.207 42.5156C195.249 41.1406 194.738 39.5677 194.676 37.7969H200.301C200.405 39.1094 200.973 40.1823 202.004 41.0156C203.035 41.8385 204.275 42.25 205.723 42.25C206.858 42.25 207.868 41.9896 208.754 41.4687C209.639 40.9479 210.337 40.224 210.848 39.2969C211.358 38.3698 211.608 37.3125 211.598 36.125C211.608 34.9167 211.353 33.8437 210.832 32.9062C210.311 31.9687 209.598 31.2344 208.691 30.7031C207.785 30.1615 206.743 29.8906 205.566 29.8906C204.608 29.8802 203.665 30.0573 202.738 30.4219C201.811 30.7865 201.077 31.2656 200.535 31.8594L195.301 31L196.973 14.5H215.535V19.3438H201.77L200.848 27.8281H201.035C201.629 27.1302 202.467 26.5521 203.551 26.0937C204.634 25.625 205.822 25.3906 207.113 25.3906C209.051 25.3906 210.78 25.849 212.301 26.7656C213.822 27.6719 215.02 28.9219 215.895 30.5156C216.77 32.1094 217.207 33.9323 217.207 35.9844C217.207 38.099 216.717 39.9844 215.738 41.6406C214.77 43.2865 213.421 44.5833 211.691 45.5312C209.973 46.4687 207.983 46.9375 205.723 46.9375ZM235.816 46.9375C233.493 46.9375 231.431 46.5469 229.629 45.7656C227.837 44.9844 226.431 43.9167 225.41 42.5625C224.4 41.1979 223.9 39.651 223.91 37.9219C223.9 36.5781 224.191 35.3438 224.785 34.2188C225.379 33.0938 226.181 32.1562 227.191 31.4062C228.212 30.6458 229.348 30.1615 230.598 29.9531V29.7344C228.952 29.3698 227.618 28.5312 226.598 27.2187C225.587 25.8958 225.087 24.3698 225.098 22.6406C225.087 20.9948 225.546 19.526 226.473 18.2344C227.4 16.9427 228.671 15.9271 230.285 15.1875C231.9 14.4375 233.743 14.0625 235.816 14.0625C237.868 14.0625 239.697 14.4375 241.301 15.1875C242.915 15.9271 244.186 16.9427 245.113 18.2344C246.051 19.526 246.52 20.9948 246.52 22.6406C246.52 24.3698 246.004 25.8958 244.973 27.2187C243.952 28.5312 242.634 29.3698 241.02 29.7344V29.9531C242.27 30.1615 243.395 30.6458 244.395 31.4062C245.405 32.1562 246.207 33.0938 246.801 34.2188C247.405 35.3438 247.707 36.5781 247.707 37.9219C247.707 39.651 247.197 41.1979 246.176 42.5625C245.155 43.9167 243.749 44.9844 241.957 45.7656C240.176 46.5469 238.129 46.9375 235.816 46.9375ZM235.816 42.4687C237.014 42.4687 238.056 42.2656 238.941 41.8594C239.827 41.4427 240.514 40.8594 241.004 40.1094C241.493 39.3594 241.743 38.4948 241.754 37.5156C241.743 36.4948 241.478 35.5937 240.957 34.8125C240.447 34.0208 239.743 33.401 238.848 32.9531C237.962 32.5052 236.952 32.2813 235.816 32.2813C234.671 32.2813 233.65 32.5052 232.754 32.9531C231.858 33.401 231.15 34.0208 230.629 34.8125C230.118 35.5937 229.868 36.4948 229.879 37.5156C229.868 38.4948 230.108 39.3594 230.598 40.1094C231.087 40.849 231.775 41.4271 232.66 41.8437C233.556 42.2604 234.608 42.4687 235.816 42.4687ZM235.816 27.8906C236.796 27.8906 237.66 27.6927 238.41 27.2969C239.171 26.901 239.77 26.349 240.207 25.6406C240.645 24.9323 240.868 24.1146 240.879 23.1875C240.868 22.2708 240.65 21.4687 240.223 20.7812C239.796 20.0833 239.202 19.5469 238.441 19.1719C237.681 18.7865 236.806 18.5937 235.816 18.5937C234.806 18.5937 233.915 18.7865 233.145 19.1719C232.384 19.5469 231.79 20.0833 231.363 20.7812C230.947 21.4687 230.743 22.2708 230.754 23.1875C230.743 24.1146 230.952 24.9323 231.379 25.6406C231.816 26.3385 232.415 26.8906 233.176 27.2969C233.947 27.6927 234.827 27.8906 235.816 27.8906Z" fill="#59576D"/>
<path d="M259.792 37.5V26.5909H261.468V31.3352H262.576L266.496 26.5909H268.656L264.252 31.8466L268.712 37.5H266.553L262.974 32.8977H261.468V37.5H259.792ZM276.5 35.2273L280.307 26.5909H281.898L277.182 37.5H275.818L271.188 26.5909H272.75L276.5 35.2273ZM272.21 26.5909V37.5H270.534V26.5909H272.21ZM280.79 37.5V26.5909H282.466V37.5H280.79Z" fill="#59576D"/>
<rect x="1" y="1" width="298" height="62" rx="9" stroke="#9EA6BE" stroke-width="2"/>
</svg>
