<svg width="21" height="21" viewBox="0 0 21 21" fill="none" xmlns="http://www.w3.org/2000/svg">
<path d="M19.71 14.0799L15.19 9.56988C15.2846 9.10926 15.3315 8.64012 15.33 8.16988C15.3296 6.88054 15.0042 5.61208 14.3839 4.48177C13.7636 3.35145 12.8683 2.39576 11.7809 1.70303C10.6934 1.01029 9.44888 0.602869 8.1623 0.518423C6.87572 0.433977 5.58862 0.67523 4.41995 1.21988C4.27189 1.28752 4.14258 1.39028 4.04324 1.51924C3.94391 1.6482 3.87756 1.79946 3.84995 1.95988C3.82246 2.11827 3.83355 2.28095 3.88229 2.43414C3.93103 2.58733 4.01599 2.72651 4.12995 2.83988L8.47995 7.17988L6.67995 8.97988L2.33995 4.62988C2.22562 4.51769 2.08601 4.4346 1.93287 4.38761C1.77972 4.34062 1.61754 4.33112 1.45995 4.35988C1.30053 4.38648 1.14994 4.45132 1.02106 4.54885C0.892182 4.64638 0.788863 4.77369 0.719953 4.91988C0.173478 6.09239 -0.0675654 7.38406 0.019245 8.67475C0.106055 9.96543 0.5179 11.2132 1.21647 12.302C1.91503 13.3907 2.87762 14.2851 4.0147 14.9019C5.15177 15.5188 6.42638 15.838 7.71995 15.8299C8.19019 15.8314 8.65933 15.7845 9.11995 15.6899L13.63 20.2099C13.7229 20.3036 13.8335 20.378 13.9554 20.4288C14.0772 20.4795 14.2079 20.5057 14.34 20.5057C14.472 20.5057 14.6027 20.4795 14.7245 20.4288C14.8464 20.378 14.957 20.3036 15.05 20.2099C15.1437 20.1169 15.2181 20.0063 15.2688 19.8845C15.3196 19.7626 15.3458 19.6319 15.3458 19.4999C15.3458 19.3679 15.3196 19.2372 15.2688 19.1153C15.2181 18.9934 15.1437 18.8828 15.05 18.7899L10.15 13.8899C10.0275 13.7682 9.87566 13.6804 9.70918 13.6348C9.54271 13.5893 9.36728 13.5876 9.19995 13.6299C8.71713 13.7592 8.21978 13.8264 7.71995 13.8299C6.972 13.8365 6.23014 13.695 5.53709 13.4137C4.84405 13.1323 4.21353 12.7166 3.68184 12.1905C3.15016 11.6644 2.72783 11.0383 2.43917 10.3482C2.15052 9.6582 2.00124 8.91786 1.99995 8.16988C1.99866 7.8349 2.02542 7.5004 2.07995 7.16988L5.99995 11.0999C6.09292 11.1936 6.20352 11.268 6.32538 11.3188C6.44724 11.3695 6.57794 11.3957 6.70995 11.3957C6.84197 11.3957 6.97267 11.3695 7.09453 11.3188C7.21639 11.268 7.32699 11.1936 7.41995 11.0999L10.6 7.88988C10.7802 7.70342 10.8809 7.45422 10.8809 7.19488C10.8809 6.93554 10.7802 6.68635 10.6 6.49988L6.70995 2.57988C7.04054 2.5259 7.37499 2.49914 7.70995 2.49988C9.212 2.50253 10.6516 3.10108 11.7128 4.16412C12.774 5.22716 13.37 6.66784 13.37 8.16988C13.3665 8.66971 13.2993 9.16706 13.17 9.64988C13.1276 9.81721 13.1293 9.99264 13.1749 10.1591C13.2204 10.3256 13.3083 10.4774 13.43 10.5999L18.33 15.4999C18.5183 15.6882 18.7737 15.794 19.04 15.794C19.3063 15.794 19.5616 15.6882 19.75 15.4999C19.9383 15.3116 20.044 15.0562 20.044 14.7899C20.044 14.5236 19.9383 14.2682 19.75 14.0799H19.71Z" fill="#1C1939" fill-opacity="0.8"/>
</svg>
