<svg width="30" height="30" viewBox="0 0 30 30" fill="none" xmlns="http://www.w3.org/2000/svg">
<path fill-rule="evenodd" clip-rule="evenodd" d="M22 6H8C6.9 6 6 6.9 6 8V22C6 23.1 6.9 24 8 24H22C23.1 24 24 23.1 24 22V8C24 6.9 23.1 6 22 6ZM11 20C10.45 20 10 19.55 10 19V14C10 13.45 10.45 13 11 13C11.55 13 12 13.45 12 14V19C12 19.55 11.55 20 11 20ZM15 20C14.45 20 14 19.55 14 19V11C14 10.45 14.45 10 15 10C15.55 10 16 10.45 16 11V19C16 19.55 15.55 20 15 20ZM19 20C18.45 20 18 19.55 18 19V17C18 16.45 18.45 16 19 16C19.55 16 20 16.45 20 17V19C20 19.55 19.55 20 19 20Z" fill="#C3CAD9"/>
</svg>
